<svg width="81" height="81" viewBox="0 0 81 81" fill="none" xmlns="http://www.w3.org/2000/svg">
<path d="M40.1 80.2C62.2466 80.2 80.2 62.2466 80.2 40.1C80.2 17.9534 62.2466 0 40.1 0C17.9534 0 0 17.9534 0 40.1C0 62.2466 17.9534 80.2 40.1 80.2Z" fill="url(#paint0_linear)"/>
<path d="M54.3002 29.3001C56.0123 29.3001 57.4002 27.9122 57.4002 26.2001C57.4002 24.488 56.0123 23.1001 54.3002 23.1001C52.5881 23.1001 51.2002 24.488 51.2002 26.2001C51.2002 27.9122 52.5881 29.3001 54.3002 29.3001Z" fill="white"/>
<path d="M40.5002 27.1001C33.3002 27.1001 27.4001 33.0001 27.4001 40.2001C27.4001 47.4001 33.3002 53.3001 40.5002 53.3001C47.7002 53.3001 53.6002 47.4001 53.6002 40.2001C53.6002 32.9001 47.7002 27.1001 40.5002 27.1001ZM40.5002 48.5001C35.9002 48.5001 32.1002 44.7001 32.1002 40.1001C32.1002 35.5001 35.9002 31.7001 40.5002 31.7001C45.1002 31.7001 48.9001 35.5001 48.9001 40.1001C48.9001 44.8001 45.1002 48.5001 40.5002 48.5001Z" fill="white"/>
<path d="M50.9002 66.7H29.7002C20.9002 66.7 13.7002 59.5 13.7002 50.7V29.5C13.7002 20.7 20.9002 13.5 29.7002 13.5H50.9002C59.7002 13.5 66.9002 20.7 66.9002 29.5V50.7C66.8002 59.6 59.7002 66.7 50.9002 66.7ZM29.7002 18.6C23.7002 18.6 18.7002 23.5 18.7002 29.6V50.8C18.7002 56.8 23.6002 61.8 29.7002 61.8H50.9002C56.9002 61.8 61.9002 56.9 61.9002 50.8V29.6C61.9002 23.6 57.0002 18.6 50.9002 18.6H29.7002Z" fill="white"/>
<defs>
<linearGradient id="paint0_linear" x1="5.9435" y1="74.3429" x2="92.6198" y2="-12.3335" gradientUnits="userSpaceOnUse">
<stop offset="0.0011048" stop-color="#FBE18A"/>
<stop offset="0.2094" stop-color="#FCBB45"/>
<stop offset="0.3765" stop-color="#F75274"/>
<stop offset="0.5238" stop-color="#D53692"/>
<stop offset="0.7394" stop-color="#8F39CE"/>
<stop offset="1" stop-color="#5B4FE9"/>
</linearGradient>
</defs>
</svg>
