<svg width="98" height="98" viewBox="0 0 98 98" fill="none" xmlns="http://www.w3.org/2000/svg">
<ellipse cx="48" cy="49" rx="37" ry="40" fill="white"/>
<path d="M48.921 40.507C53.588 40.49 57.305 36.741 57.288 32.064C57.271 27.385 53.546 23.662 48.877 23.658C44.169 23.653 40.409 27.445 40.445 32.166C40.48 36.826 44.239 40.524 48.921 40.507Z" fill="#EE8208"/>
<path d="M48.875 0C21.882 0 0 21.883 0 48.875C0 75.867 21.882 97.75 48.875 97.75C75.868 97.75 97.75 75.867 97.75 48.875C97.75 21.883 75.868 0 48.875 0ZM48.945 14.863C58.465 14.889 66.106 22.676 66.057 32.301C66.009 41.704 58.243 49.325 48.739 49.293C39.332 49.261 31.617 41.462 31.673 32.04C31.726 22.515 39.445 14.837 48.945 14.863ZM68.227 56.057C66.122 58.218 63.588 59.782 60.774 60.873C58.114 61.904 55.199 62.423 52.313 62.769C52.75 63.243 52.955 63.476 53.227 63.748C57.143 67.685 61.078 71.602 64.981 75.55C66.311 76.896 66.588 78.564 65.856 80.127C65.057 81.837 63.264 82.961 61.505 82.84C60.391 82.763 59.522 82.21 58.751 81.433C55.795 78.459 52.783 75.538 49.889 72.508C49.044 71.626 48.64 71.794 47.895 72.56C44.922 75.622 41.9 78.635 38.861 81.632C37.496 82.978 35.872 83.222 34.288 82.452C32.605 81.638 31.535 79.919 31.617 78.19C31.675 77.024 32.249 76.13 33.051 75.332C36.928 71.463 40.793 67.582 44.659 63.704C44.916 63.447 45.154 63.174 45.527 62.774C40.254 62.223 35.499 60.925 31.428 57.742C30.922 57.346 30.401 56.964 29.941 56.52C28.158 54.809 27.979 52.848 29.388 50.83C30.595 49.102 32.619 48.64 34.724 49.633C35.132 49.824 35.52 50.066 35.892 50.322C43.478 55.535 53.9 55.678 61.516 50.555C62.27 49.979 63.077 49.505 64.012 49.266C65.828 48.798 67.524 49.467 68.498 51.057C69.613 52.874 69.6 54.646 68.227 56.057Z" fill="#EE8208"/>
</svg>
